<svg width="128" height="128" viewBox="0 0 24 24" fill="none" xmlns="http://www.w3.org/2000/svg">
	<path d="M12 2.16C8.54 2.16 8.16 2.18 6.94 2.24C5.72 2.3 5.02 2.5 4.46 2.7C3.88 2.92 3.44 3.18 3 3.6C2.58 4.04 2.32 4.48 2.1 5.06C1.9 5.62 1.7 6.32 1.64 7.54C1.58 8.76 1.56 9.14 1.56 12.6C1.56 16.06 1.58 16.44 1.64 17.66C1.7 18.88 1.9 19.58 2.1 20.14C2.32 20.72 2.58 21.16 3 21.6C3.44 22.02 3.88 22.28 4.46 22.5C5.02 22.7 5.72 22.9 6.94 22.96C8.16 23.02 8.54 23.04 12 23.04C15.46 23.04 15.84 23.02 17.06 22.96C18.28 22.9 18.98 22.7 19.54 22.5C20.12 22.28 20.56 22.02 21 21.6C21.42 21.16 21.68 20.72 21.9 20.14C22.1 19.58 22.3 18.88 22.36 17.66C22.42 16.44 22.44 16.06 22.44 12.6C22.44 9.14 22.42 8.76 22.36 7.54C22.3 6.32 22.1 5.62 21.9 5.06C21.68 4.48 21.42 4.04 21 3.6C20.56 3.18 20.12 2.92 19.54 2.7C18.98 2.5 18.28 2.3 17.06 2.24C15.84 2.18 15.46 2.16 12 2.16ZM12 0C15.52 0 15.92 0.02 17.16 0.08C18.4 0.14 19.28 0.34 20.04 0.6C20.8 0.86 21.44 1.2 22 1.8C22.6 2.36 22.94 3 23.2 3.76C23.46 4.52 23.66 5.4 23.72 6.64C23.78 7.88 23.8 8.28 23.8 11.8C23.8 15.32 23.78 15.72 23.72 16.96C23.66 18.2 23.46 19.08 23.2 19.84C22.94 20.6 22.6 21.24 22 21.8C21.44 22.4 20.8 22.74 20.04 23C19.28 23.26 18.4 23.46 17.16 23.52C15.92 23.58 15.52 23.6 12 23.6C8.48 23.6 8.08 23.58 6.84 23.52C5.6 23.46 4.72 23.26 3.96 23C3.2 22.74 2.56 22.4 2 21.8C1.4 21.24 1.06 20.6 0.8 19.84C0.54 19.08 0.34 18.2 0.28 16.96C0.22 15.72 0.2 15.32 0.2 11.8C0.2 8.28 0.22 7.88 0.28 6.64C0.34 5.4 0.54 4.52 0.8 3.76C1.06 3 1.4 2.36 2 1.8C2.56 1.2 3.2 0.86 3.96 0.6C4.72 0.34 5.6 0.14 6.84 0.08C8.08 0.02 8.48 0 12 0Z" fill="#1A73E8"/>
	<path d="M12 5.84C8.6 5.84 5.84 8.6 5.84 12C5.84 15.4 8.6 18.16 12 18.16C15.4 18.16 18.16 15.4 18.16 12C18.16 8.6 15.4 5.84 12 5.84ZM12 15.6C9.9 15.6 8.2 13.9 8.2 11.8C8.2 9.7 9.9 8 12 8C14.1 8 15.8 9.7 15.8 11.8C15.8 13.9 14.1 15.6 12 15.6Z" fill="#1A73E8"/>
	<path d="M19.84 5.6C19.84 6.37 19.23 7 18.44 7C17.65 7 17.04 6.39 17.04 5.6C17.04 4.81 17.65 4.2 18.44 4.2C19.23 4.2 19.84 4.81 19.84 5.6Z" fill="#1A73E8"/>
</svg>